<svg height="980pt" preserveAspectRatio="xMidYMid meet" viewBox="0 0 674 980" width="674pt" xmlns="http://www.w3.org/2000/svg"><g transform="matrix(.1 0 0 -.1 0 980)"><path d="m3190 9790c-434-60-795-286-1041-654-135-201-219-434-254-708-4-34-11-48-22-48-12 0-14-9-9-47 3-27 8-77 11-113l5-65-64-52c-54-44-130-132-244-287-77-103-105-213-105-406 0-217 42-370 124-452 26-26 60-71 76-100 60-114 172-196 365-268 122-46 118-51 118 169v176l51-95c236-446 736-742 1209-717 474 25 915 317 1128 747l37 74 5-189c4-164 7-190 21-193 20-4 206 70 266 105 72 42 151 121 189 189 20 35 48 73 63 83 121 87 179 492 106 739-33 111-271 407-377 470-21 12-28 23-24 37 2 11 8 59 11 108 6 76 5 87-8 87-22 0-37 31-37 77 0 51-34 210-66 308-32 99-118 278-174 365-218 333-551 562-933 641-115 23-326 33-427 19zm377-229c474-93 848-458 997-974 27-92 53-231 58-307 2-40 0-45-19-48-21-3-22-8-25-120l-3-117-33 68c-128 262-385 513-645 631-366 167-732 162-1092-13-264-129-468-327-610-593l-44-83-3 110-3 109-34 10-34 10 6 76c13 162 79 395 157 550 185 368 516 627 887 694 117 21 323 20 440-3z"/><path d="m2090 5800c-8-4-40-20-70-34-66-30-143-104-187-177-19-32-400-1059-923-2488-707-1931-893-2449-902-2510-34-240 123-484 360-563 237-78 512 32 625 250 19 37 281 702 583 1479 301 777 549 1411 551 1410 2-3-180-1688-192-1774l-6-43h1441 1440l-5 37c-11 76-194 1777-192 1780 2 1 250-633 551-1410 302-777 560-1437 575-1467 14-30 55-85 90-122 195-208 519-221 732-30 130 116 196 299 169 466-7 45-307 876-896 2484-486 1329-896 2441-910 2470-38 77-130 172-201 206-32 15-66 32-75 37-23 12-2538 11-2558-1z"/></g></svg>