<svg height="680pt" preserveAspectRatio="xMidYMid meet" viewBox="0 0 980 680" width="980pt" xmlns="http://www.w3.org/2000/svg"><g transform="matrix(.1 0 0 -.1 0 680)"><path d="m3137 6784c-196-35-381-164-481-333-79-136-105-263-106-523v-118h-1068c-1162 0-1120 2-1234-56-109-55-212-193-237-317-8-36-10-692-9-2182l3-2129 799 1619c439 891 824 1658 854 1705 61 95 200 238 307 318 93 68 258 153 374 192 191 64-4 60 2822 60h2579v193c0 213-8 257-60 356-57 107-183 203-301 230-28 7-430 11-1116 11h-1073v138c0 325-49 470-215 637-119 119-241 181-401 205-41 6-334 9-714 9-508-1-662-4-723-15zm1438-483c22-10 54-34 72-52 56-59 63-90 63-274v-165h-840-840v163c0 149 2 166 24 212 24 53 70 99 121 121 24 10 169 13 695 13 627 1 667-1 705-18z"/><path d="m2540 4529c-94-24-205-76-284-133-70-50-171-153-208-211-14-22-442-885-952-1918-644-1305-932-1897-943-1943-39-157 49-282 221-313 42-8 1060-11 3480-11 2819 1 3434 3 3496 14 170 31 339 124 464 257 91 96-20-120 1109 2169 471 954 861 1755 866 1780 25 109 3 188-69 253-94 85 268 77-3636 76-3411 0-3470 0-3544-20z"/></g></svg>