<svg height="512pt" class="Link"
preserveAspectRatio="xMidYMid meet" 
viewBox="0 0 512 512" width="512pt" 
xmlns="http://www.w3.org/2000/svg">
<g transform="matrix(.1 0 0 -.1 0 512)">
<path d="m650 4220c-134-14-235-69-310-169-56-74-75-138-74-246 1-118 26-184 100-265 63-68 115-100 199-127 57-17 143-18 2025-18s1968 1 2025 18c84 27 136 59 199 127 74 81 99 147 100 265 1 108-18 172-74 246-51 69-128 124-208 151l-67 23-1925 1c-1059 1-1954-2-1990-6zm3962-87c60-27 127-94 158-158 20-41 25-65 25-135 0-79-3-90-36-150-23-43-52-78-84-102-98-74 76-69-2135-66l-1985 3-50 24c-258 127-240 500 28 593 49 17 152 17 2042 15l1990-2z"/><path d="m650 2940c-134-14-235-69-310-169-56-74-75-138-74-246 1-118 26-184 100-265 63-68 115-100 199-127 57-17 143-18 2025-18s1968 1 2025 18c84 27 136 59 199 127 74 81 99 147 100 265 1 108-18 172-74 246-51 69-128 124-208 151l-67 23-1925 1c-1059 1-1954-2-1990-6zm3962-87c60-27 127-94 158-158 20-41 25-65 25-135 0-79-3-90-36-150-23-43-52-78-84-102-98-74 76-69-2135-66l-1985 3-50 24c-258 127-240 500 28 593 49 17 152 17 2042 15l1990-2z"/><path d="m650 1660c-134-14-235-69-310-169-56-74-75-138-74-246 1-118 26-184 100-265 63-68 115-100 199-127 57-17 143-18 2025-18s1968 1 2025 18c84 27 136 59 199 127 74 81 99 147 100 265 1 108-18 172-74 246-51 69-128 124-208 151l-67 23-1925 1c-1059 1-1954-2-1990-6zm3962-87c60-27 127-94 158-158 20-41 25-65 25-135 0-79-3-90-36-150-23-43-52-78-84-102-98-74 76-69-2135-66l-1985 3-50 24c-258 127-240 500 28 593 49 17 152 17 2042 15l1990-2z"/>
</g></svg>