<svg height="512pt" preserveAspectRatio="xMidYMid meet" viewBox="0 0 512 512" width="512pt" xmlns="http://www.w3.org/2000/svg"><g transform="matrix(.1 0 0 -.1 0 512)"><path d="m2393 5026c-202-39-362-126-515-283-177-181-1829-2050-1851-2093-33-67-30-176 6-246 81-157 288-202 425-91 22 18 430 471 907 1007s892 1001 923 1032c123 127 310 153 451 64 54-34 85-69 1025-1116 477-531 887-980 912-997 58-41 114-57 185-50 97 9 182 65 226 151 36 70 39 179 6 247-23 46-1798 2032-1911 2138-114 106-247 180-397 221-102 28-290 35-392 16z"/><path d="m2438 4131c-26-10-63-28-82-40-37-23-1492-1720-1558-1818-21-30-45-78-53-106-37-122-36-132 114-1018 101-596 146-839 161-871 34-73 85-124 158-160l67-33 677-3 678-3v598c0 575 1 599 20 630 37 62 43 63 422 63 318 0 345-1 374-19 65-40 64-26 64-681v-592l188 4c169 3 192 5 236 26 79 36 132 86 166 155 28 57 43 136 171 892 153 905 152 901 108 1022-12 32-34 76-49 98-40 61-1487 1755-1531 1793-87 75-233 103-331 63zm-276-2739 33-32 3-283c3-282 3-283-20-317-41-60-45-60-356-58l-284 3-34 37-34 38v286 286l39 40 40 39 290-3 291-3z"/></g></svg>