<svg height="1600pt" preserveAspectRatio="xMidYMid meet" viewBox="0 0 1600 1600" width="1600pt" xmlns="http://www.w3.org/2000/svg"><g transform="matrix(.1 0 0 -.1 0 1600)"><path d="m7443 15359c-102-13-202-87-243-182-10-23-58-262-106-531-79-433-91-490-109-497-11-5-65-25-120-45s-144-56-198-81l-98-44-389 281c-214 155-411 293-437 308-42 24-59 27-138 27-78 0-97-4-140-27-35-18-163-137-426-397-410-403-415-410-426-531-10-108 2-130 313-580 262-380 285-417 276-440-6-14-33-74-60-135-27-60-62-146-78-190-15-44-28-81-29-82-1-2-225-39-499-83-555-90-559-91-639-180-83-92-81-79-82-700v-545l27-52c34-63 95-124 150-149 22-10 263-59 535-108l495-91 42-115c24-63 64-160 89-214l46-100-22-30c-12-17-140-195-286-396-145-201-275-390-289-420-20-43-26-71-26-127-1-128 15-148 432-568 392-397 409-410 525-422 105-11 130 3 587 317l422 291 106-49c107-49 293-122 311-122 12 0 6 32 101-529 48-281 88-491 99-517 29-65 93-128 163-159l62-28 545-1 546-1 53 24c65 29 144 113 166 176 8 26 52 263 97 528 44 265 84 485 87 489 4 3 52 23 107 43 55 21 148 59 208 85l107 49 418-297c253-180 434-302 458-310 23-6 73-12 112-12 121 0 141 15 556 423 419 411 426 420 426 556 0 59-6 87-24 126-12 28-152 231-310 452l-286 403 31 62c18 35 58 128 90 208 46 116 62 147 81 153 13 4 239 44 503 88 436 73 485 83 538 111 64 34 106 81 140 155 22 48 22 50 22 608v560l-29 53c-17 29-46 67-65 84-70 62-111 72-628 159l-492 84-37 104c-20 58-59 155-85 215-27 60-45 114-42 120 4 6 132 187 284 403 153 216 288 411 301 435 19 35 23 59 23 129 0 137-2 140-426 569-416 420-419 422-553 422-52 0-87-6-120-20-25-12-223-146-439-300-215-153-397-281-403-285-7-4-58 15-115 42s-151 66-208 87c-72 27-106 45-112 59-4 11-42 234-83 495-70 440-78 480-108 540-24 45-47 75-82 101-90 68-94 69-646 71-272 2-519 0-547-3zm731-656c3-16 35-212 71-438 36-225 73-432 82-460 11-35 33-67 72-106 60-59 71-65 264-124 156-47 301-110 467-200 74-40 155-79 180-85 47-13 124-8 178 11 17 6 199 129 404 275l373 264 147-147 147-147-18-25c-10-14-131-185-269-378-138-194-256-370-263-390-8-21-13-70-13-110 0-70 2-75 86-240 104-202 159-337 203-499 39-142 61-189 112-240 69-68 105-77 563-154 234-38 435-72 448-75 22-5 22-7 22-193 0-103-3-196-6-207-5-18-45-27-447-94-243-41-461-80-484-88-53-18-137-93-164-145-11-22-34-88-51-146-43-151-101-296-171-431-139-267-132-247-131-325 1-48 7-85 21-116 11-25 138-211 282-414l262-370-143-143c-78-79-146-143-150-143-5 0-176 119-382 265-205 146-393 272-416 280s-75 15-115 15c-72 0-76-1-238-85-195-100-324-153-501-204-72-21-144-45-161-54-45-23-112-96-134-147-12-28-47-208-91-470-39-234-74-435-77-448l-5-22-207 2-206 3-76 450c-42 248-82 463-88 479-41 102-121 162-276 206-213 60-309 101-639 274-51 26-69 30-130 30-39-1-90-8-113-17-22-8-211-133-419-276l-377-261-141 147c-78 80-142 148-143 152-2 3 116 170 262 371 155 214 271 383 280 409 8 25 15 77 15 116 0 71-1 74-98 266-99 195-164 358-203 512-36 144-90 216-194 262-33 15-196 49-487 101l-438 79v207c0 188 2 207 18 212 9 3 204 35 432 71s436 73 462 81c57 19 141 91 170 148 11 22 33 84 48 137 58 202 104 308 272 630 38 73 47 155 24 230-11 38-66 126-190 306-96 138-212 307-259 376l-86 124 147 146 147 147 355-256c195-141 380-268 410-282 43-21 71-26 128-26 71 0 75 1 232 82 197 102 341 161 522 212 182 52 236 88 288 191 13 24 50 204 102 488l83 451h207 206z"/><path d="m7646 12790c-313-57-607-208-833-429-135-133-226-257-311-427-159-318-205-684-132-1044 107-523 490-968 995-1155 776-287 1637 58 1990 798 61 128 96 230 127 372 30 136 33 483 5 615-67 318-199 575-409 796-227 237-503 393-830 465-140 31-453 36-602 9zm538-644c319-96 567-344 662-662 32-110 43-293 24-412-62-388-367-706-756-787-100-21-285-22-379-1-420 91-726 433-764 853-35 398 175 770 537 947 152 75 256 97 442 92 122-3 159-8 234-30z"/><path d="m4310 7104c-19-2-91-9-160-15-151-13-356-49-505-89-373-99-1358-509-2560-1066-265-123-316-151-357-191-65-64-92-128-92-223 0-90 22-147 84-214 63-69 137-101 230-100 85 0 36-20 585 234 683 316 1161 524 1710 745 388 156 489 192 630 225 377 87 1015 87 1450-1 141-28 321-90 450-154 175-86 290-181 556-456 309-319 414-402 608-484 330-139 691-245 1076-314 376-68 697-97 1214-111 422-11 524-27 686-106 198-97 276-255 234-479-14-77-31-109-88-168-88-92-233-152-438-182-96-14-236-16-1174-12-1140 4-1075 1-1449 57-297 45-736 132-1085 215-190 46-259 46-343 5-189-95-234-338-91-494 61-67 98-83 324-140 488-122 962-208 1415-258 200-22 230-23 1275-23 1126 0 1153 1 1360 46 111 25 239 68 347 118 73 33 597 374 2728 1774 389 255 482 311 643 387 387 181 701 235 869 149 76-39 168-162 168-227 0-82-74-217-190-344-95-104-236-217-460-367-678-456-2980-1951-3955-2571-346-219-989-609-1138-689-471-253-889-248-1497 21-141 62-784 386-2048 1029-408 209-791 400-850 425-238 102-390 138-587 138s-360-43-572-154c-142-74-1002-623-1054-672-59-57-82-110-87-203-5-103 20-175 83-239 70-69 123-91 230-91 69 0 98 4 125 19 19 10 229 143 465 294 440 282 609 379 703 400 122 27 253 7 427-67 51-22 426-210 832-417 1125-574 1984-1004 2123-1063 375-159 707-233 1040-232 415 1 740 104 1191 377 79 48 252 152 384 232s355 217 495 305c1079 678 3994 2580 4275 2790 402 300 621 599 676 922 16 93 6 269-21 370-85 323-343 566-695 656-222 57-515 34-817-65l-97-32-68 75c-165 182-404 306-711 368-67 14-136 18-297 18-197 0-216-2-315-27-58-16-127-36-154-47l-50-19-71 60c-210 175-452 289-709 333-118 20-377 20-514-1-206-30-427-98-617-189-111-54-108-52-1166-712l-866-541-134 30c-246 55-557 153-750 237-51 22-92 60-253 236-520 571-1053 841-1856 940-118 15-666 29-750 19zm6903-663c80-21 197-68 197-80 0-4-328-210-729-459l-730-452-83 20c-111 26-301 50-397 50-145 0-380 13-376 21 3 4 56 39 118 77 61 38 322 200 578 360s499 307 540 327c100 51 319 122 448 145 135 25 318 21 434-9zm1530-307c39-9 110-34 157-56 78-38 83-42 65-54-11-7-508-333-1105-724l-1084-711-17 68c-34 135-83 247-156 352-43 61-44 66-26 78 10 8 359 225 775 483 530 329 783 480 843 505 82 33 190 68 245 79 44 8 228-3 303-20z"/></g></svg>